<svg xmlns="http://www.w3.org/2000/svg" width="2396.882" height="564.542" viewBox="0 0 2396.882 564.542"><defs><style>.a{fill:#b1b1b1;}.b{opacity:0.69;}.c,.d,.e,.f,.g{stroke:none;}.d{fill:#fec0c0;}.e{fill:#fcfc31;}.f{fill:#9dcffb;}.g{fill:#f5f5f5;}</style></defs><g transform="translate(245.232 -809.313)"><g class="a" transform="matrix(0.978, -0.208, 0.208, 0.978, -184.232, 950.189)"><path class="c" d="M 406.6256408691406 428.5 L 2.374363422393799 428.5 L 204.5 3.492548704147339 L 406.6256408691406 428.5 Z"/><path class="d" d="M 204.5 6.985107421875 L 4.74871826171875 427 L 404.2512817382813 427 L 204.5 6.985107421875 M 204.5 0 L 409 430 L 0 430 L 204.5 0 Z"/></g><g class="a" transform="matrix(0.998, -0.07, 0.07, 0.998, -39.025, 1107.455)"><path class="c" d="M 631.6773071289063 193.5 L 5.322691440582275 193.5 L 318.5 1.758790850639343 L 631.6773071289063 193.5 Z"/><path class="e" d="M 318.5 3.517669677734375 L 10.6455078125 192 L 626.3544921875 192 L 318.5 3.517669677734375 M 318.5 0 L 637 195 L 0 195 L 318.5 0 Z"/></g><g class="a" transform="translate(191.163 1036.293) rotate(-39)"><path class="c" d="M 312.4742126464844 287.5 L 2.525783061981201 287.5 L 157.5 3.1346116065979 L 312.4742126464844 287.5 Z"/><path class="e" d="M 157.5 6.269134521484375 L 5.051513671875 286 L 309.948486328125 286 L 157.5 6.269134521484375 M 157.5 0 L 315 289 L 0 289 L 157.5 0 Z"/></g><g class="a" transform="translate(643 954.196)"><path class="c" d="M 381.4190368652344 335.5 L 2.580954551696777 335.5 L 192 3.030112981796265 L 381.4190368652344 335.5 Z"/><path class="d" d="M 192 6.060302734375 L 5.161956787109375 334 L 378.8380432128906 334 L 192 6.060302734375 M 192 0 L 384 337 L 0 337 L 192 0 Z"/></g><g class="a" transform="translate(338 955.597)"><path class="c" d="M 492.9628601074219 322.5 L 3.037171125411987 322.5 L 248.0000152587891 2.467897176742554 L 492.9628601074219 322.5 Z"/><path class="e" d="M 248.0000152587891 4.935791015625 L 6.074310302734375 321 L 489.9257202148438 321 L 248.0000152587891 4.935791015625 M 248.0000152587891 0 L 496 324 L 3.0517578125e-05 324 L 248.0000152587891 0 Z"/></g><g class="a" transform="translate(1015.284 938.163) rotate(54)"><path class="c" d="M 357.5675354003906 193.5 L 3.432465791702271 193.5 L 180.5 2.208204030990601 L 357.5675354003906 193.5 Z"/><path class="e" d="M 180.5 4.416366577148438 L 6.864898681640625 192 L 354.1351013183594 192 L 180.5 4.416366577148438 M 180.5 0 L 361 195 L 0 195 L 180.5 0 Z"/></g><g class="a" transform="matrix(0.998, -0.07, 0.07, 0.998, 959.658, 981.782)"><path class="c" d="M 379.4026489257813 329.5 L 2.597365140914917 329.5 L 191 3.001193284988403 L 379.4026489257813 329.5 Z"/><path class="e" d="M 191 6.002471923828125 L 5.194793701171875 328 L 376.8052062988281 328 L 191 6.002471923828125 M 191 0 L 382 331 L 0 331 L 191 0 Z"/></g><g class="a" transform="translate(1640.233 995.55) rotate(91)"><path class="c" d="M 346.6064147949219 369.5101928710938 L 14.20447731018066 360.2981567382813 L 171.1150665283203 9.213955879211426 L 346.6064147949219 369.5101928710938 Z"/><path class="e" d="M 171.1734466552734 12.75946044921875 L 16.48980712890625 358.8609008789063 L 344.1741943359375 367.9421691894531 L 171.1734466552734 12.75946044921875 M 171.0566101074219 5.668548583984375 L 349.0386047363281 371.078125 L 11.91912841796875 361.7353820800781 L 171.0566101074219 5.668548583984375 Z"/></g><g class="a" transform="translate(1374 989.098)"><path class="c" d="M 492.9628601074219 322.5 L 3.037171125411987 322.5 L 248.0000152587891 2.467897176742554 L 492.9628601074219 322.5 Z"/><path class="d" d="M 248.0000152587891 4.935791015625 L 6.074310302734375 321 L 489.9257202148438 321 L 248.0000152587891 4.935791015625 M 248.0000152587891 0 L 496 324 L 3.0517578125e-05 324 L 248.0000152587891 0 Z"/></g><g class="a" transform="matrix(0.966, 0.259, -0.259, 0.966, 1738.096, 804.117)"><path class="c" d="M 426.69873046875 472.295166015625 L 9.500783920288086 465.4799499511719 L 210.9599609375 7.090130805969238 L 426.69873046875 472.295166015625 Z"/><path class="e" d="M 210.9966430664063 10.73464965820313 L 11.78216552734375 464.0169982910156 L 424.3316345214844 470.7563171386719 L 210.9966430664063 10.73464965820313 M 210.9232025146484 3.445587158203125 L 429.0658264160156 473.8340759277344 L 7.219329833984375 466.9429016113281 L 210.9232025146484 3.445587158203125 Z"/></g></g><g class="b" transform="translate(212.232 -808.313)"><g class="a" transform="matrix(0.978, -0.208, 0.208, 0.978, -212.232, 936.189)"><path class="c" d="M 406.6256408691406 428.5 L 2.374363422393799 428.5 L 204.5 3.492548704147339 L 406.6256408691406 428.5 Z"/><path class="f" d="M 204.5 6.985107421875 L 4.74871826171875 427 L 404.2512817382813 427 L 204.5 6.985107421875 M 204.5 0 L 409 430 L 0 430 L 204.5 0 Z"/></g><g class="a" transform="matrix(0.998, -0.07, 0.07, 0.998, -39.025, 1107.455)"><path class="c" d="M 631.6773071289063 193.5 L 5.322691440582275 193.5 L 318.5 1.758790850639343 L 631.6773071289063 193.5 Z"/><path class="g" d="M 318.5 3.517669677734375 L 10.6455078125 192 L 626.3544921875 192 L 318.5 3.517669677734375 M 318.5 0 L 637 195 L 0 195 L 318.5 0 Z"/></g><g class="a" transform="translate(191.163 1036.293) rotate(-39)"><path class="c" d="M 312.4742126464844 287.5 L 2.525783061981201 287.5 L 157.5 3.1346116065979 L 312.4742126464844 287.5 Z"/><path class="g" d="M 157.5 6.269134521484375 L 5.051513671875 286 L 309.948486328125 286 L 157.5 6.269134521484375 M 157.5 0 L 315 289 L 0 289 L 157.5 0 Z"/></g><g class="a" transform="translate(643 954.196)"><path class="c" d="M 381.4190368652344 335.5 L 2.580954551696777 335.5 L 192 3.030112981796265 L 381.4190368652344 335.5 Z"/><path class="g" d="M 192 6.060302734375 L 5.161956787109375 334 L 378.8380432128906 334 L 192 6.060302734375 M 192 0 L 384 337 L 0 337 L 192 0 Z"/></g><g class="a" transform="translate(338 955.597)"><path class="c" d="M 492.9628601074219 322.5 L 3.037171125411987 322.5 L 248.0000152587891 2.467897176742554 L 492.9628601074219 322.5 Z"/><path class="g" d="M 248.0000152587891 4.935791015625 L 6.074310302734375 321 L 489.9257202148438 321 L 248.0000152587891 4.935791015625 M 248.0000152587891 0 L 496 324 L 3.0517578125e-05 324 L 248.0000152587891 0 Z"/></g><g class="a" transform="translate(1015.284 938.163) rotate(54)"><path class="c" d="M 357.5675354003906 193.5 L 3.432465791702271 193.5 L 180.5 2.208204030990601 L 357.5675354003906 193.5 Z"/><path class="g" d="M 180.5 4.416366577148438 L 6.864898681640625 192 L 354.1351013183594 192 L 180.5 4.416366577148438 M 180.5 0 L 361 195 L 0 195 L 180.5 0 Z"/></g><g class="a" transform="matrix(0.998, -0.07, 0.07, 0.998, 959.658, 981.782)"><path class="c" d="M 379.4026489257813 329.5 L 2.597365140914917 329.5 L 191 3.001193284988403 L 379.4026489257813 329.5 Z"/><path class="f" d="M 191 6.002471923828125 L 5.194793701171875 328 L 376.8052062988281 328 L 191 6.002471923828125 M 191 0 L 382 331 L 0 331 L 191 0 Z"/></g><g class="a" transform="translate(1640.233 995.55) rotate(91)"><path class="c" d="M 346.6064147949219 369.5101928710938 L 14.20447731018066 360.2981567382813 L 171.1150665283203 9.213955879211426 L 346.6064147949219 369.5101928710938 Z"/><path class="g" d="M 171.1734466552734 12.75946044921875 L 16.48980712890625 358.8609008789063 L 344.1741943359375 367.9421691894531 L 171.1734466552734 12.75946044921875 M 171.0566101074219 5.668548583984375 L 349.0386047363281 371.078125 L 11.91912841796875 361.7353820800781 L 171.0566101074219 5.668548583984375 Z"/></g><g class="a" transform="matrix(0.966, 0.259, -0.259, 0.966, 1738.096, 804.117)"><path class="c" d="M 426.69873046875 472.295166015625 L 9.500783920288086 465.4799499511719 L 210.9599609375 7.090130805969238 L 426.69873046875 472.295166015625 Z"/><path class="f" d="M 210.9966430664063 10.73464965820313 L 11.78216552734375 464.0169982910156 L 424.3316345214844 470.7563171386719 L 210.9966430664063 10.73464965820313 M 210.9232025146484 3.445587158203125 L 429.0658264160156 473.8340759277344 L 7.219329833984375 466.9429016113281 L 210.9232025146484 3.445587158203125 Z"/></g><g class="a" transform="translate(1374 989.098)"><path class="c" d="M 492.9628601074219 322.5 L 3.037171125411987 322.5 L 248.0000152587891 2.467897176742554 L 492.9628601074219 322.5 Z"/><path class="g" d="M 248.0000152587891 4.935791015625 L 6.074310302734375 321 L 489.9257202148438 321 L 248.0000152587891 4.935791015625 M 248.0000152587891 0 L 496 324 L 3.0517578125e-05 324 L 248.0000152587891 0 Z"/></g></g></svg>